<svg version="1.2" xmlns="http://www.w3.org/2000/svg" viewBox="0 0 797 101" width="797" height="101">
	<title>Nuevo proyecto</title>
	<style>
	</style>
	<path id="Medical HUB" fill="#000000" aria-label="Medical HUB"  d="m64.66 94h15.54v-50.39l20.87 50.39h11.76l20.76-50.39v50.39h15.54v-77.48h-17.54l-24.64 57.61l-24.64-57.61h-17.65zm126.21-49.73c7.99 0 14.43 5.11 14.65 13.21h-29.2c1.23-8.43 7.11-13.21 14.55-13.21zm29.19 30.42h-16.76c-2 4.11-5.66 7.44-12.32 7.44c-7.77 0-13.99-5.11-14.77-14.21h44.96c0.33-2 0.44-4 0.44-6c0-18.31-12.54-30.41-30.3-30.41c-18.2 0-30.86 12.32-30.86 31.75c0 19.31 12.99 31.74 30.86 31.74c15.21 0 25.42-8.99 28.75-20.31zm8.88-11.66c0 19.21 12.43 31.97 28.08 31.97c9.66 0 16.54-4.44 20.2-10.1v9.1h15.77v-82.14h-15.77v29.2c-4.21-5.78-11.98-9.55-20.09-9.55c-15.76 0-28.19 12.32-28.19 31.52zm48.4 0.23c0 11.65-7.77 18.09-16.32 18.09c-8.33 0-16.21-6.66-16.21-18.32c0-11.65 7.88-17.87 16.21-17.87c8.55 0 16.32 6.44 16.32 18.1zm30.85 30.74h15.54v-61.49h-15.54zm7.88-68.82c5.44 0 9.55-4 9.55-9.1c0-5.11-4.11-9.11-9.55-9.11c-5.55 0-9.54 4-9.54 9.11c0 5.1 3.99 9.1 9.54 9.1zm18.99 38.07c0 19.32 12.65 31.75 30.41 31.75c15.32 0 25.64-8.66 28.97-21.76h-16.76c-1.89 5.55-5.88 8.44-12.32 8.44c-8.66 0-14.43-6.44-14.43-18.43c0-11.99 5.77-18.54 14.43-18.54c6.44 0 10.54 3.33 12.32 8.55h16.76c-3.33-13.76-13.65-21.75-28.97-21.75c-17.76 0-30.41 12.43-30.41 31.74zm66.82-0.22c0 19.2 12.43 31.97 27.97 31.97c9.77 0 16.76-4.66 20.42-9.99v8.99h15.65v-61.5h-15.65v8.77c-3.66-5.1-10.43-9.76-20.31-9.76c-15.65 0-28.08 12.32-28.08 31.52zm48.39 0.22c0 11.66-7.77 18.09-16.31 18.09c-8.33 0-16.21-6.66-16.21-18.31c0-11.66 7.88-17.87 16.21-17.87c8.54 0 16.31 6.44 16.31 18.09zm30.86 30.75h15.54v-82.14h-15.54z" />
	<path id="Medical HUB" fill="#0eaaff" aria-label="Medical HUB"  d="m586.14 16.08h18.98v77.92h-18.98v-32.08h-29.53v32.08h-18.98v-77.92h18.98v30.52h29.53zm32.3 0h18.98v46.62q0 7 3.44 10.77q3.44 3.77 10.1 3.77q6.66 0 10.21-3.77q3.56-3.77 3.56-10.77v-46.62h18.98v46.51q0 10.44-4.44 17.65q-4.44 7.22-11.99 10.88q-7.44 3.66-16.65 3.66q-9.22 0-16.54-3.55q-7.22-3.66-11.43-10.88q-4.22-7.32-4.22-17.76zm125.76 37.96q6.77 1.45 10.88 6.78q4.11 5.21 4.11 11.98q0 9.77-6.89 15.54q-6.77 5.66-18.98 5.66h-36.29v-77.92h35.07q11.88 0 18.54 5.44q6.77 5.44 6.77 14.76q0 6.89-3.66 11.44q-3.55 4.55-9.55 6.32zm-28.19-22.75v16.32h12.43q4.66 0 7.1-2q2.56-2.11 2.56-6.11q0-3.99-2.56-6.1q-2.44-2.11-7.1-2.11zm13.98 47.4q4.78 0 7.33-2.11q2.66-2.22 2.66-6.33q0-4.11-2.77-6.44q-2.66-2.33-7.44-2.33h-13.76v17.21z" />
</svg>